<svg width="48" height="48" viewBox="0 0 48 48" fill="none" xmlns="http://www.w3.org/2000/svg">
<path fill-rule="evenodd" clip-rule="evenodd" d="M11.72 18.04C11.32 18.13 9.62 18.55 8.22 19.46C6.98 20.27 6 21.45 6 23V29C6 29.45 6.3 29.85 6.74 29.97C7.18 30.09 7.64 29.9 7.87 29.51C8.78 27.96 9.91 26.84 11.33 26.26C11.73 28.43 12.45 30.55 13.16 32.3C11.8 33 8.01 35.36 8.01 40V43C8.01 43.55 8.46 44 9.01 44H16.01C16.55 44 17 43.56 17.01 43.02C17.04 41.64 17.4 40.46 18.01 39.45C18.17 40.36 18.51 41.36 19.13 42.48C19.28 42.76 19.55 42.94 19.87 42.99C20.18 43.03 20.49 42.93 20.72 42.71L21.55 41.88C21.97 42.72 22.61 43.41 23.56 43.9C23.85 44.04 24.18 44.04 24.47 43.9C25.42 43.42 26.06 42.73 26.48 41.88L27.31 42.71C27.53 42.93 27.85 43.04 28.16 42.99C28.47 42.95 28.74 42.76 28.9 42.48C29.52 41.36 29.86 40.36 30.02 39.45C30.64 40.46 31 41.64 31.02 43.02C31.03 43.57 31.48 44 32.02 44H39.02C39.57 44 40.02 43.55 40.02 43V40C40.02 35.36 36.23 33 34.87 32.3C35.58 30.56 36.3 28.43 36.7 26.26C38.12 26.84 39.25 27.95 40.16 29.51C40.39 29.9 40.85 30.09 41.29 29.97C41.73 29.85 42.03 29.46 42.03 29V23C42.03 21.45 41.06 20.27 39.81 19.46C38.41 18.55 36.71 18.13 36.31 18.04C34.97 13.27 31.95 8.95 29.04 6.43C27.22 4.86 25.4 4 24.03 4C22.66 4 20.84 4.86 19.02 6.43C16.11 8.94 13.09 13.26 11.75 18.04H11.72ZM15.23 41H10V42H15.06C15.1 41.66 15.16 41.32 15.23 41V41ZM38 41H32.77C32.84 41.32 32.9 41.66 32.94 42H38V41ZM20.32 37C20.2 37.09 20.08 37.18 19.97 37.27C19.83 38.16 19.88 39.13 20.31 40.28L21.3 39.29C21.57 39.03 21.96 38.93 22.31 39.05C22.67 39.16 22.93 39.47 22.99 39.84C23.12 40.64 23.41 41.34 24 41.82C24.6 41.34 24.88 40.64 25.01 39.84C25.07 39.47 25.33 39.16 25.69 39.05C26.05 38.94 26.44 39.03 26.7 39.29L27.69 40.28C28.12 39.13 28.16 38.16 28.03 37.27C27.91 37.18 27.8 37.09 27.68 37H20.32ZM34.05 34.13C33.38 35.59 32.86 36.5 32.86 36.5C32.68 36.81 32.35 37 31.99 37H30.65C31.2 37.61 31.67 38.27 32.04 39H37.91C37.44 36.15 35.04 34.64 34.05 34.13ZM13.94 34.13C12.95 34.64 10.55 36.15 10.08 39H15.95C16.32 38.27 16.78 37.61 17.34 37H16C15.64 37 15.31 36.81 15.13 36.5C15.13 36.5 14.61 35.59 13.94 34.13V34.13ZM33.23 31C32.53 32.81 31.79 34.27 31.41 35H16.6C16.21 34.27 15.48 32.81 14.78 31H33.24H33.23ZM30 32C30.55 32 31 32.45 31 33C31 33.55 30.55 34 30 34C29.45 34 29 33.55 29 33C29 32.45 29.45 32 30 32ZM21 32C21.55 32 22 32.45 22 33C22 33.55 21.55 34 21 34C20.45 34 20 33.55 20 33C20 32.45 20.45 32 21 32ZM18 32C18.55 32 19 32.45 19 33C19 33.55 18.55 34 18 34C17.45 34 17 33.55 17 33C17 32.45 17.45 32 18 32ZM27 32C27.55 32 28 32.45 28 33C28 33.55 27.55 34 27 34C26.45 34 26 33.55 26 33C26 32.45 26.45 32 27 32ZM24 32C24.55 32 25 32.45 25 33C25 33.55 24.55 34 24 34C23.45 34 23 33.55 23 33C23 32.45 23.45 32 24 32ZM30.97 11.59C29.86 11.06 27 10 24 10C21 10 17.06 11.58 17.04 11.59C14.78 14.76 13 18.88 13 23C13 24.99 13.46 27.1 14.06 29H33.93C34.53 27.1 34.99 24.99 34.99 23C34.99 18.88 33.22 14.76 30.96 11.59H30.97ZM24 11C19.58 11 16 14.58 16 19C16 23.42 19.58 27 24 27C28.42 27 32 23.42 32 19C32 14.58 28.42 11 24 11ZM36.77 20.25C36.92 21.16 37 22.08 37 23C37 23.41 36.98 23.82 36.95 24.23C38.09 24.61 39.11 25.23 40 26.09V23C40 22.15 39.37 21.57 38.7 21.13C38.06 20.71 37.34 20.43 36.78 20.24L36.77 20.25ZM11.23 20.25C10.67 20.43 9.95 20.72 9.31 21.14C8.63 21.58 8.01 22.16 8.01 23.01V26.09C8.9 25.24 9.92 24.61 11.06 24.23C11.03 23.82 11.01 23.41 11.01 23C11.01 22.08 11.09 21.16 11.24 20.25H11.23ZM18.09 20C18.51 22.51 20.5 24.49 23.01 24.92V23.9C21.05 23.5 19.51 21.96 19.11 20H18.09V20ZM29.92 20H28.9C28.5 21.96 26.96 23.5 25 23.9V24.92C27.51 24.5 29.49 22.51 29.92 20ZM24 16C25.66 16 27 17.34 27 19C27 20.66 25.66 22 24 22C22.34 22 21 20.66 21 19C21 17.34 22.34 16 24 16ZM25 13.08V14.1C26.96 14.5 28.5 16.04 28.9 18H29.92C29.5 15.49 27.51 13.51 25 13.08ZM23 13.08C20.49 13.5 18.51 15.49 18.08 18H19.1C19.5 16.04 21.04 14.5 23 14.1V13.08V13.08ZM28.37 8.55C27.46 7.67 26.55 6.98 25.7 6.53C25.07 6.2 24.5 5.99 23.99 5.99C23.48 5.99 22.91 6.19 22.28 6.53C21.43 6.98 20.52 7.67 19.61 8.55C20.87 8.23 22.36 7.99 23.98 7.99C25.6 7.99 27.09 8.23 28.35 8.55H28.37Z" fill="white"/>
</svg>
