<svg width="64" height="64" viewBox="0 0 64 64" fill="none" xmlns="http://www.w3.org/2000/svg">
<path d="M39 35H35V37H39V35Z" fill="white"/>
<path d="M45 35H41V37H45V35Z" fill="white"/>
<path d="M51 35H47V37H51V35Z" fill="white"/>
<path d="M2.21007 41.39C2.10501 41.5321 2.03948 41.6995 2.02016 41.8752C2.00083 42.0508 2.02841 42.2285 2.10007 42.39C2.17526 42.5677 2.30023 42.7198 2.45992 42.828C2.61961 42.9362 2.8072 42.996 3.00007 43H11.5301L13.0001 47.37L16.0901 55.37C16.1319 55.4685 16.1893 55.5597 16.2601 55.64C16.1207 55.9553 16.0459 56.2953 16.0401 56.64V59.36C16.0426 60.0525 16.316 60.7165 16.802 61.2099C17.2879 61.7034 17.9477 61.9869 18.6401 62H29.3601C30.0594 61.9974 30.7294 61.7184 31.2239 61.2239C31.7184 60.7293 31.9974 60.0594 32.0001 59.36V56.64C31.9919 56.2956 31.9172 55.956 31.7801 55.64C31.8609 55.5503 31.9222 55.4447 31.9601 55.33L33.6401 50.33C33.89 49.579 34.0117 48.7914 34.0001 48V43H61.0001C61.1875 43.0004 61.3712 42.9481 61.5304 42.8491C61.6895 42.75 61.8176 42.6083 61.9001 42.44C61.9717 42.2785 61.9993 42.1008 61.98 41.9252C61.9607 41.7495 61.8951 41.5821 61.7901 41.44L55.0001 32.66V3C55.0001 2.73478 54.8947 2.48043 54.7072 2.29289C54.5196 2.10536 54.2653 2 54.0001 2H10.0001C9.73485 2 9.4805 2.10536 9.29296 2.29289C9.10542 2.48043 9.00007 2.73478 9.00007 3V32.66L2.21007 41.39ZM5.00007 41L10.4501 34H16.0001V37.34V37.2L15.0501 37.5L16.0001 37.18C15.7935 36.5469 15.3922 35.9951 14.8535 35.6037C14.3147 35.2122 13.666 35.0009 13.0001 35C12.6935 34.9959 12.3887 35.0467 12.1001 35.15C11.7358 35.2757 11.3999 35.472 11.1117 35.7277C10.8234 35.9833 10.5884 36.2934 10.4201 36.64C10.0481 37.3936 9.99051 38.264 10.2601 39.06V39.06L10.8801 41H5.00007ZM20.0001 22V19.1C20.9444 19.2926 21.813 19.754 22.5013 20.4286C23.1896 21.1033 23.6682 21.9626 23.8795 22.9029C24.0908 23.8433 24.0258 24.8247 23.6924 25.729C23.359 26.6333 22.7713 27.4219 22.0001 28V26.15C22.0001 25.3544 21.684 24.5913 21.1214 24.0287C20.5588 23.4661 19.7957 23.15 19.0001 23.15C18.2044 23.15 17.4414 23.4661 16.8787 24.0287C16.3161 24.5913 16.0001 25.3544 16.0001 26.15V28C15.2289 27.4219 14.6412 26.6333 14.3077 25.729C13.9743 24.8247 13.9093 23.8433 14.1207 22.9029C14.332 21.9626 14.8106 21.1033 15.4988 20.4286C16.1871 19.754 17.0557 19.2926 18.0001 19.1V22H20.0001ZM30.0001 59.36C30.0001 59.5297 29.9326 59.6925 29.8126 59.8125C29.6926 59.9326 29.5298 60 29.3601 60H18.6401C18.4703 60 18.3075 59.9326 18.1875 59.8125C18.0675 59.6925 18.0001 59.5297 18.0001 59.36V56.64C18.0001 56.4703 18.0675 56.3075 18.1875 56.1875C18.3075 56.0674 18.4703 56 18.6401 56H29.3601C29.5298 56 29.6926 56.0674 29.8126 56.1875C29.9326 56.3075 30.0001 56.4703 30.0001 56.64V59.36ZM32.0001 48C31.9991 48.547 31.9114 49.0905 31.7401 49.61L30.2801 54H17.6801L14.8401 46.7L12.2401 38.7L12.1701 38.47L11.1701 38.76L12.1201 38.44C12.0657 38.2912 12.0421 38.133 12.0507 37.9749C12.0593 37.8167 12.0999 37.662 12.1701 37.52C12.222 37.4024 12.299 37.2976 12.3957 37.2129C12.4925 37.1282 12.6066 37.0658 12.7301 37.03C12.8163 36.9984 12.909 36.9881 13.0001 37C13.2298 37.0207 13.4479 37.1099 13.6262 37.2561C13.8046 37.4023 13.9348 37.5988 14.0001 37.82L15.9501 43.82V44H17.9501V26.15C17.9433 26.0055 17.9652 25.8611 18.0144 25.7251C18.0635 25.589 18.139 25.464 18.2365 25.3572C18.3341 25.2504 18.4517 25.1639 18.5827 25.1026C18.7137 25.0413 18.8556 25.0064 19.0001 25C19.283 25.0255 19.5451 25.1594 19.7315 25.3738C19.9179 25.5881 20.0141 25.8663 20.0001 26.15V41H22.0001V35C22.0001 34.7348 22.1054 34.4804 22.293 34.2929C22.4805 34.1054 22.7348 34 23.0001 34C23.2653 34 23.5196 34.1054 23.7072 34.2929C23.8947 34.4804 24.0001 34.7348 24.0001 35V43H26.0001V37C26.0027 36.8253 26.0473 36.6538 26.1301 36.5C26.2392 36.3074 26.4092 36.1564 26.6134 36.0708C26.8176 35.9852 27.0445 35.9698 27.2584 36.0269C27.4723 36.0841 27.6612 36.2107 27.7954 36.3868C27.9296 36.5629 28.0016 36.7786 28.0001 37V45H30.0001V39C29.9982 38.8541 30.0283 38.7095 30.0882 38.5764C30.1482 38.4433 30.2365 38.325 30.347 38.2297C30.4576 38.1344 30.5877 38.0645 30.7281 38.0248C30.8686 37.9851 31.016 37.9766 31.1601 38C31.4116 38.0682 31.6321 38.2206 31.785 38.4316C31.9378 38.6427 32.0137 38.8998 32.0001 39.16V48ZM34.0001 41V39.16C34.0235 38.6594 33.9211 38.1609 33.7024 37.7101C33.4836 37.2592 33.1553 36.8703 32.7476 36.579C32.3399 36.2876 31.8657 36.103 31.3683 36.042C30.8708 35.9811 30.3661 36.0457 29.9001 36.23C29.8323 35.9731 29.7279 35.7272 29.5901 35.5C29.2398 34.8682 28.667 34.3892 27.9831 34.1563C27.2992 33.9234 26.5532 33.9533 25.8901 34.24C25.8901 34.16 25.8401 34.08 25.8201 34H53.5101L59.0001 41H34.0001ZM11.0001 4H53.0001V32H22.0001V30.3C23.436 29.6189 24.5975 28.4693 25.2934 27.0405C25.9893 25.6116 26.1782 23.9884 25.8291 22.4379C25.48 20.8874 24.6137 19.5018 23.3725 18.5091C22.1314 17.5163 20.5894 16.9754 19.0001 16.9754C17.4107 16.9754 15.8687 17.5163 14.6276 18.5091C13.3865 19.5018 12.5201 20.8874 12.171 22.4379C11.8219 23.9884 12.0109 25.6116 12.7068 27.0405C13.4027 28.4693 14.5641 29.6189 16.0001 30.3V32H11.0001V4Z" fill="white"/>
<path d="M42 38H38V40H42V38Z" fill="white"/>
<path d="M48 38H44V40H48V38Z" fill="white"/>
<path d="M54 38H50V40H54V38Z" fill="white"/>
<path d="M36 26.67V28C36 28.7956 36.3161 29.5587 36.8787 30.1213C37.4413 30.6839 38.2044 31 39 31C39.7956 31 40.5587 30.6839 41.1213 30.1213C41.6839 29.5587 42 28.7956 42 28V26.67C43.486 26.0122 44.7494 24.9375 45.6368 23.5761C46.5243 22.2147 46.9978 20.6251 47 19C47 16.8783 46.1571 14.8434 44.6569 13.3431C43.1566 11.8429 41.1217 11 39 11C36.8783 11 34.8434 11.8429 33.3431 13.3431C31.8429 14.8434 31 16.8783 31 19C31.0009 20.6254 31.4739 22.2155 32.3615 23.5772C33.2492 24.9388 34.5132 26.0133 36 26.67V26.67ZM40 28C40 28.2652 39.8946 28.5196 39.7071 28.7071C39.5196 28.8946 39.2652 29 39 29C38.7348 29 38.4804 28.8946 38.2929 28.7071C38.1054 28.5196 38 28.2652 38 28V27H40V28ZM38 20C38 19.8022 38.0586 19.6089 38.1685 19.4444C38.2784 19.28 38.4346 19.1518 38.6173 19.0761C38.8 19.0004 39.0011 18.9806 39.1951 19.0192C39.3891 19.0578 39.5673 19.153 39.7071 19.2929C39.847 19.4327 39.9422 19.6109 39.9808 19.8049C40.0194 19.9989 39.9996 20.2 39.9239 20.3827C39.8482 20.5654 39.72 20.7216 39.5556 20.8315C39.3911 20.9414 39.1978 21 39 21C38.7348 21 38.4804 20.8946 38.2929 20.7071C38.1054 20.5196 38 20.2652 38 20ZM39 13C40.5913 13 42.1174 13.6321 43.2426 14.7574C44.3679 15.8826 45 17.4087 45 19C44.9975 20.3028 44.5994 21.5741 43.8583 22.6455C43.1172 23.717 42.0681 24.5381 40.85 25H40V22.82C40.6672 22.5841 41.2296 22.1199 41.5876 21.5095C41.9457 20.8991 42.0765 20.1818 41.9568 19.4843C41.8371 18.7868 41.4747 18.154 40.9337 17.6979C40.3926 17.2418 39.7077 16.9916 39 16.9916C38.2923 16.9916 37.6074 17.2418 37.0663 17.6979C36.5253 18.154 36.1629 18.7868 36.0432 19.4843C35.9235 20.1818 36.0543 20.8991 36.4124 21.5095C36.7704 22.1199 37.3328 22.5841 38 22.82V25H37.15C35.9319 24.5381 34.8828 23.717 34.1417 22.6455C33.4006 21.5741 33.0025 20.3028 33 19C33 17.4087 33.6321 15.8826 34.7574 14.7574C35.8826 13.6321 37.4087 13 39 13Z" fill="white"/>
<path d="M52 18H48V20H52V18Z" fill="white"/>
<path d="M30 18H26V20H30V18Z" fill="white"/>
<path d="M44.9584 25.1483L43.8584 26.8083L47.1784 29.0083L48.2784 27.3483L44.9584 25.1483Z" fill="white"/>
<path d="M29.5542 10.1753L28.4448 11.8394L31.773 14.0582L32.8824 12.3941L29.5542 10.1753Z" fill="white"/>
<path d="M32.4539 25.1715L29.1257 27.3903L30.2351 29.0544L33.5633 26.8356L32.4539 25.1715Z" fill="white"/>
<path d="M49.0804 10.1658L45.7522 12.3846L46.8616 14.0487L50.1898 11.8299L49.0804 10.1658Z" fill="white"/>
<path d="M54.0001 56V52C54.0001 50.4087 53.3679 48.8826 52.2427 47.7574C51.1175 46.6321 49.5914 46 48.0001 46C46.4088 46 44.8826 46.6321 43.7574 47.7574C42.6322 48.8826 42.0001 50.4087 42.0001 52V56C42.0001 57.5913 42.6322 59.1174 43.7574 60.2426C44.8826 61.3679 46.4088 62 48.0001 62C49.5914 62 51.1175 61.3679 52.2427 60.2426C53.3679 59.1174 54.0001 57.5913 54.0001 56V56ZM51.8601 51H49.0001V48.14C49.6879 48.3196 50.3155 48.6792 50.8182 49.1819C51.3209 49.6846 51.6805 50.3121 51.8601 51ZM47.0001 48.14V51H44.1401C44.3196 50.3121 44.6793 49.6846 45.1819 49.1819C45.6846 48.6792 46.3122 48.3196 47.0001 48.14ZM44.0001 56V53H52.0001V56C52.0001 57.0609 51.5786 58.0783 50.8285 58.8284C50.0783 59.5786 49.0609 60 48.0001 60C46.9392 60 45.9218 59.5786 45.1716 58.8284C44.4215 58.0783 44.0001 57.0609 44.0001 56ZM41.0001 52V50C40.1627 50.127 39.3986 50.5499 38.8465 51.1921C38.2943 51.8342 37.9907 52.6531 37.9907 53.5C37.9907 54.3469 38.2943 55.1658 38.8465 55.8079C39.3986 56.4501 40.1627 56.873 41.0001 57V55C40.4701 55 40.0001 54.3 40.0001 53.5C40.0001 52.7 40.4701 52 41.0001 52Z" fill="white"/>
<path d="M40.9999 47C39.3641 47.1284 37.8368 47.8689 36.7229 49.0738C35.6089 50.2786 34.9902 51.8591 34.9902 53.5C34.9902 55.1409 35.6089 56.7214 36.7229 57.9262C37.8368 59.1311 39.3641 59.8716 40.9999 60V58C39.896 57.8723 38.8775 57.3433 38.1382 56.5136C37.3989 55.6838 36.9904 54.6113 36.9904 53.5C36.9904 52.3887 37.3989 51.3162 38.1382 50.4864C38.8775 49.6567 39.896 49.1277 40.9999 49V47ZM58.9999 26.5C59.0581 25.6399 58.7764 24.7913 58.2154 24.1367C57.6544 23.4822 56.8588 23.074 55.9999 23V25C56.5299 25 56.9999 25.7 56.9999 26.5C56.9999 27.3 56.5299 28 55.9999 28V30C56.8588 29.926 57.6544 29.5178 58.2154 28.8633C58.7764 28.2087 59.0581 27.3601 58.9999 26.5V26.5Z" fill="white"/>
<path d="M55.9999 20V22C57.1259 22.0696 58.1786 22.5819 58.928 23.425C59.6775 24.2682 60.0629 25.3737 59.9999 26.5C60.0629 27.6263 59.6775 28.7318 58.928 29.575C58.1786 30.4181 57.1259 30.9304 55.9999 31V33C57.6562 32.9298 59.2172 32.2065 60.3416 30.9884C61.466 29.7703 62.0622 28.1565 61.9999 26.5C62.0622 24.8435 61.466 23.2297 60.3416 22.0116C59.2172 20.7935 57.6562 20.0702 55.9999 20V20ZM7.99995 25V23C7.14105 23.074 6.34552 23.4822 5.78448 24.1367C5.22345 24.7913 4.94174 25.6399 4.99995 26.5C4.94174 27.3601 5.22345 28.2087 5.78448 28.8633C6.34552 29.5178 7.14105 29.926 7.99995 30V28C7.46995 28 6.99995 27.3 6.99995 26.5C6.99995 25.7 7.46995 25 7.99995 25Z" fill="white"/>
<path d="M8.00004 33V31C6.87409 30.9304 5.82142 30.4181 5.07196 29.575C4.32249 28.7318 3.93713 27.6263 4.00004 26.5C3.93713 25.3737 4.32249 24.2682 5.07196 23.425C5.82142 22.5819 6.87409 22.0696 8.00004 22V20C6.34381 20.0702 4.78279 20.7935 3.65839 22.0116C2.534 23.2297 1.93774 24.8435 2.00004 26.5C1.93774 28.1565 2.534 29.7703 3.65839 30.9884C4.78279 32.2065 6.34381 32.9298 8.00004 33V33ZM55 55V57C55.8374 56.873 56.6015 56.4501 57.1536 55.8079C57.7058 55.1658 58.0094 54.3469 58.0094 53.5C58.0094 52.6531 57.7058 51.8342 57.1536 51.1921C56.6015 50.5499 55.8374 50.127 55 50V52C55.53 52 56 52.7 56 53.5C56 54.3 55.53 55 55 55Z" fill="white"/>
<path d="M55 47V49C56.1039 49.1277 57.1224 49.6567 57.8617 50.4864C58.601 51.3162 59.0095 52.3887 59.0095 53.5C59.0095 54.6113 58.601 55.6838 57.8617 56.5136C57.1224 57.3433 56.1039 57.8723 55 58V60C56.6358 59.8716 58.1631 59.1311 59.2771 57.9262C60.391 56.7214 61.0097 55.1409 61.0097 53.5C61.0097 51.8591 60.391 50.2786 59.2771 49.0738C58.1631 47.8689 56.6358 47.1284 55 47V47Z" fill="white"/>
<path d="M40 6H38V10H40V6Z" fill="white"/>
</svg>
