<svg width="64" height="64" viewBox="0 0 64 64" fill="none" xmlns="http://www.w3.org/2000/svg">
<path d="M46.37 13.13H7.28998C6.9538 13.13 6.6209 13.1962 6.31031 13.3249C5.99972 13.4535 5.7175 13.6421 5.47979 13.8798C5.24207 14.1175 5.0535 14.3998 4.92485 14.7104C4.7962 15.0209 4.72998 15.3538 4.72998 15.69V48.31C4.72998 48.989 4.99969 49.6401 5.47979 50.1202C5.95988 50.6003 6.61103 50.87 7.28998 50.87H56.71C57.3889 50.87 58.0401 50.6003 58.5202 50.1202C59.0003 49.6401 59.27 48.989 59.27 48.31V15.68C59.27 15.3443 59.2037 15.0119 59.0749 14.7019C58.9461 14.3918 58.7574 14.1103 58.5196 13.8734C58.2817 13.6364 57.9994 13.4488 57.6889 13.3213C57.3784 13.1937 57.0457 13.1287 56.71 13.13V13.13" stroke="white" stroke-width="3" stroke-linecap="round" stroke-linejoin="round"/>
<path d="M46.59 27.22L42.16 28.77C41.8804 28.8689 41.5809 28.8984 41.2874 28.856C40.9938 28.8135 40.715 28.7003 40.4749 28.5261C40.2348 28.352 40.0407 28.1221 39.9092 27.8562C39.7777 27.5903 39.7128 27.2965 39.72 27L39.77 22.31L50 8.05998C50.3188 7.60917 50.7234 7.22564 51.1906 6.93135C51.6578 6.63705 52.1784 6.43776 52.7227 6.34488C53.267 6.252 53.8242 6.26735 54.3626 6.39006C54.9009 6.51276 55.4098 6.74041 55.86 7.05998V7.05998C56.3105 7.37787 56.6938 7.78154 56.988 8.24785C57.2822 8.71416 57.4814 9.23395 57.5743 9.77741C57.6672 10.3209 57.6519 10.8773 57.5294 11.4149C57.4068 11.9524 57.1793 12.4605 56.86 12.91L46.59 27.22Z" stroke="white" stroke-width="3" stroke-linecap="round" stroke-linejoin="round"/>
<path d="M5.36011 49.99L20.3901 28.88L34.5001 50.87L47.3801 37.88L58.5401 50.09" stroke="white" stroke-width="3" stroke-linecap="round" stroke-linejoin="round"/>
<path d="M30.95 27.61C33.4352 27.61 35.45 25.5953 35.45 23.11C35.45 20.6247 33.4352 18.61 30.95 18.61C28.4647 18.61 26.45 20.6247 26.45 23.11C26.45 25.5953 28.4647 27.61 30.95 27.61Z" stroke="white" stroke-width="3" stroke-linecap="round" stroke-linejoin="round"/>
<path d="M41.5901 19.79L48.2701 24.87" stroke="white" stroke-width="3" stroke-linecap="round" stroke-linejoin="round"/>
</svg>
