<svg width="128" height="128" viewBox="0 0 128 128" fill="none" xmlns="http://www.w3.org/2000/svg">
<path d="M120 33H114V37H120C122.2 37 124 38.8 124 41V103C124 105.2 122.2 107 120 107H8C5.8 107 4 105.2 4 103V41C4 38.8 5.8 37 8 37H16V33H8C3.6 33 0 36.6 0 41V103C0 107.4 3.6 111 8 111H50V115H33C31.9 115 31 115.9 31 117C31 118.1 31.9 119 33 119H95C96.1 119 97 118.1 97 117C97 115.9 96.1 115 95 115H78V111H120C124.4 111 128 107.4 128 103V41C128 36.6 124.4 33 120 33ZM74 115H54V111H74V115ZM100 21H96C94.9 21 94 21.9 94 23C94 24.1 94.9 25 96 25H100C101.1 25 102 24.1 102 23C102 21.9 101.1 21 100 21ZM88 21H84C82.9 21 82 21.9 82 23C82 24.1 82.9 25 84 25H88C89.1 25 90 24.1 90 23C90 21.9 89.1 21 88 21Z" fill="white"/>
<path d="M52.1 71.9C52.9 72.7 54.1 72.7 54.9 71.9L69.7 57.1L72.8 59.5C73.6 60.1 74.7 60.1 75.4 59.4L93.4 42.4C94 41.8 94.2 41 93.9 40.2C93.6 39.4 92.9 38.9 92 38.9H84C82.9 38.9 82 39.8 82 40.9C82 42 82.9 42.9 84 42.9H87L73.9 55.4L70.8 53C70 52.4 68.9 52.5 68.2 53.2L53.5 67.7L49.9 64.1C49.1 63.3 47.9 63.3 47.1 64.1L33 78.2V47C33 45.9 32.1 45 31 45C29.9 45 29 45.9 29 47V83C29 83.1 29 83.3 29 83.4C29 83.5 29 83.5 29.1 83.6C29.1 83.7 29.1 83.7 29.2 83.8C29.2 83.9 29.3 83.9 29.3 84C29.3 84 29.3 84.1 29.4 84.1C29.5 84.3 29.7 84.5 30 84.7C30 84.7 30.1 84.8 30.2 84.8C30.3 84.8 30.3 84.9 30.4 84.9C30.5 84.9 30.5 84.9 30.6 85C30.7 85 30.7 85 30.8 85.1C30.9 85.1 31.1 85.1 31.2 85.1H68.7C68.4 84.1 68.2 83.1 68.2 82.1V81.1H35.8L48.5 68.4L52.1 71.9Z" fill="white"/>
<path d="M104 13H26C22.7 13 20 15.7 20 19V97C20 100.3 22.7 103 26 103H81.5C80.3 102.5 79.2 101.8 78.3 100.9L76.4 99H26C24.9 99 24 98.1 24 97V33H106V54.1C106.1 54.2 106.1 54.2 106.2 54.3C106.5 54.3 106.7 54.3 107 54.3C108 54.3 109 54.5 110 54.8V19C110 15.7 107.3 13 104 13ZM106 29H24V19C24 17.9 24.9 17 26 17H104C105.1 17 106 17.9 106 19V29Z" fill="white"/>
<path d="M115.1 64.1L110.9 59.9C109.9 58.9 108.5 58.3 107 58.3C106.1 58.3 105.3 58.5 104.5 58.9C104.4 58.9 104.3 58.8 104.2 58.8C103.5 56.6 101.4 55 99 55H93C90.6 55 88.5 56.6 87.8 58.8C87.7 58.8 87.6 58.9 87.5 58.9C86.7 58.5 85.9 58.3 85 58.3C83.5 58.3 82.2 58.9 81.1 59.9L76.9 64.1C75.9 65.1 75.3 66.5 75.3 68C75.3 68.9 75.5 69.7 75.9 70.5C75.9 70.6 75.8 70.7 75.8 70.8C73.6 71.5 72 73.6 72 76V82C72 84.4 73.6 86.5 75.8 87.2C75.8 87.3 75.9 87.4 75.9 87.5C75.5 88.3 75.3 89.1 75.3 90C75.3 91.5 75.9 92.8 76.9 93.9L81.1 98.1C82.1 99.1 83.5 99.7 85 99.7C85.9 99.7 86.7 99.5 87.5 99.1C87.6 99.1 87.7 99.2 87.8 99.2C88.5 101.4 90.6 103 93 103H99C101.4 103 103.5 101.4 104.2 99.2C104.3 99.2 104.4 99.1 104.5 99.1C105.3 99.5 106.1 99.7 107 99.7C108.5 99.7 109.8 99.1 110.9 98.1L115.1 93.9C116.1 92.9 116.7 91.5 116.7 90C116.7 89.1 116.5 88.3 116.1 87.5C116.1 87.4 116.2 87.3 116.2 87.2C118.4 86.5 120 84.4 120 82V76C120 73.6 118.4 71.5 116.2 70.8C116.2 70.7 116.1 70.6 116.1 70.5C116.5 69.7 116.7 68.9 116.7 68C116.7 66.5 116.1 65.2 115.1 64.1ZM116 82C116 82.8 115.3 83.5 114.5 83.5H113.2C112.8 85.1 112.1 86.7 111.3 88.1L112.2 89C112.8 89.6 112.8 90.5 112.2 91.1L108 95.3C107.7 95.6 107.3 95.7 107 95.7C106.7 95.7 106.2 95.6 106 95.3L105.1 94.4C103.7 95.2 102.1 95.9 100.5 96.3V97.6C100.5 98.4 99.8 99.1 99 99.1H93C92.2 99.1 91.5 98.4 91.5 97.6V96.3C89.9 95.9 88.3 95.2 86.9 94.4L86 95.2C85.7 95.5 85.3 95.6 85 95.6C84.6 95.6 84.2 95.5 84 95.2L79.8 91C79.2 90.4 79.2 89.5 79.8 88.9L80.7 88C79.9 86.6 79.2 85 78.8 83.4H77.5C76.7 83.4 76 82.7 76 81.9V76C76 75.2 76.7 74.5 77.5 74.5H78.8C79.2 72.9 79.9 71.3 80.7 69.9L79.8 69C79.2 68.4 79.2 67.5 79.8 66.9L84 62.7C84.3 62.4 84.7 62.3 85 62.3C85.4 62.3 85.8 62.4 86 62.7L86.9 63.6C88.3 62.8 89.9 62.1 91.5 61.7V60.4C91.5 59.6 92.2 58.9 93 58.9H99C99.8 58.9 100.5 59.6 100.5 60.4V61.7C102.1 62.1 103.7 62.8 105.1 63.6L106 62.7C106.3 62.4 106.7 62.3 107 62.3C107.3 62.3 107.8 62.4 108 62.7L112.2 66.9C112.8 67.5 112.8 68.4 112.2 69L111.3 69.9C112.1 71.3 112.8 72.9 113.2 74.5H114.5C115.3 74.5 116 75.2 116 76V82Z" fill="white"/>
<path d="M96 66C88.8 66 83 71.8 83 79C83 86.2 88.8 92 96 92C103.2 92 109 86.2 109 79C109 71.8 103.2 66 96 66ZM96 88C91 88 87 84 87 79C87 74 91 70 96 70C101 70 105 74 105 79C105 84 101 88 96 88Z" fill="white"/>
</svg>
